<?xml version="1.0" standalone="no"?>
<!DOCTYPE svg PUBLIC "-//W3C//DTD SVG 20010904//EN"
 "http://www.w3.org/TR/2001/REC-SVG-20010904/DTD/svg10.dtd">
<svg version="1.0" xmlns="http://www.w3.org/2000/svg"
 width="732.000000pt" height="677.000000pt" viewBox="0 0 732.000000 677.000000"
 preserveAspectRatio="xMidYMid meet">
<metadata>
Created by potrace 1.16, written by Peter Selinger 2001-2019
</metadata>
<g transform="translate(0.000000,677.000000) scale(0.100000,-0.100000)"
fill="#000000" stroke="none">
<path d="M3579 6453 c-18 -32 -95 -166 -172 -298 -76 -132 -158 -274 -182
-315 -24 -41 -82 -142 -130 -224 l-86 -149 87 -151 c48 -83 98 -171 112 -196
14 -25 28 -49 32 -55 4 -5 22 -37 40 -70 48 -87 79 -135 88 -135 4 0 22 26 39
58 73 132 202 347 210 349 7 2 76 -114 214 -356 14 -25 70 -122 124 -216 136
-234 261 -451 370 -640 50 -88 150 -261 222 -385 284 -492 550 -951 618 -1070
70 -122 110 -190 263 -454 41 -72 83 -146 94 -165 11 -20 41 -72 68 -116 44
-75 259 -449 311 -542 l24 -43 358 0 359 0 -24 43 c-14 23 -60 103 -103 177
-43 74 -126 218 -185 320 -58 102 -142 246 -185 320 -43 74 -102 177 -132 228
-92 159 -161 279 -219 380 -31 53 -108 187 -172 297 -63 110 -154 268 -202
350 -48 83 -131 227 -185 320 -54 94 -166 287 -248 430 -83 143 -198 343 -257
445 -58 102 -140 244 -182 315 -181 312 -452 783 -468 811 -10 16 -53 91 -95
165 -148 254 -217 374 -287 497 -39 67 -74 124 -78 127 -5 3 -23 -21 -41 -52z"/>
<path d="M2854 5198 c-26 -46 -68 -119 -94 -163 -26 -44 -109 -188 -185 -320
-76 -132 -164 -284 -197 -338 -32 -54 -58 -100 -58 -102 0 -3 -22 -42 -49 -87
-234 -400 -431 -745 -431 -757 0 -9 39 -79 90 -161 5 -8 25 -42 43 -75 37 -65
219 -381 309 -535 30 -52 106 -183 167 -290 62 -107 149 -256 192 -330 43 -75
79 -139 79 -143 0 -4 -159 -6 -352 -5 l-353 3 -127 220 c-352 607 -403 695
-408 695 -3 0 -62 -97 -130 -216 -69 -119 -134 -233 -146 -253 -12 -20 -74
-128 -139 -241 -65 -113 -164 -284 -220 -380 -150 -258 -245 -426 -245 -433 0
-4 718 -7 1595 -7 877 0 1595 4 1595 8 0 4 -4 12 -9 17 -5 6 -52 84 -103 175
-52 91 -164 284 -248 430 -249 431 -365 631 -505 875 -73 127 -187 324 -254
439 l-121 208 69 122 c167 292 279 481 286 481 5 0 298 -497 393 -667 20 -38
42 -68 47 -68 6 0 60 86 120 191 61 105 131 227 158 272 90 156 92 119 -13
302 -51 88 -96 165 -100 170 -4 6 -29 48 -55 95 -63 113 -96 170 -264 465
-235 411 -273 475 -281 480 -4 3 -30 -32 -56 -77z"/>
<path d="M3797 3668 c-13 -21 -69 -118 -270 -467 -53 -91 -64 -118 -56 -132 5
-11 51 -90 101 -176 50 -87 99 -171 108 -188 24 -42 339 -588 410 -710 112
-194 227 -392 320 -552 l94 -163 353 0 c194 0 353 3 353 8 0 4 -11 25 -23 47
-13 22 -58 100 -100 173 -42 72 -112 192 -154 265 -42 72 -125 215 -183 317
-59 102 -167 289 -240 415 -73 127 -156 271 -185 320 -28 50 -94 164 -147 255
-52 91 -138 239 -190 330 -148 256 -162 280 -170 280 -4 0 -14 -10 -21 -22z"/>
<path d="M1308 996 c-91 -32 -123 -82 -116 -177 4 -51 9 -64 38 -94 19 -20 76
-57 128 -82 116 -58 157 -100 148 -152 -15 -94 -120 -121 -291 -75 -16 4 -23
-2 -32 -27 -7 -18 -11 -34 -10 -35 2 -2 29 -10 62 -19 162 -42 312 7 343 113
35 115 -12 183 -189 273 -87 43 -119 77 -119 125 0 74 86 108 207 81 38 -9 72
-12 76 -8 4 4 9 21 10 37 2 28 -1 30 -53 41 -75 15 -157 15 -202 -1z"/>
<path d="M4240 670 l0 -341 38 3 37 3 0 256 0 257 26 -47 c14 -25 94 -143 178
-261 118 -166 158 -216 177 -218 l24 -3 0 340 0 341 -41 0 -41 0 4 -256 c2
-174 0 -250 -7 -238 -23 39 -133 199 -238 344 -79 109 -119 156 -135 158 l-22
3 0 -341z"/>
<path d="M1840 965 l0 -35 73 -2 c39 -1 84 -1 99 0 l28 1 2 -297 3 -297 38 0
38 0 2 295 2 295 100 0 100 0 3 38 3 37 -245 0 -246 0 0 -35z"/>
<path d="M2620 748 c0 -154 4 -269 11 -293 17 -61 73 -109 148 -125 157 -33
280 38 296 174 3 28 5 150 3 271 l-3 220 -37 3 -37 3 -3 -258 c-3 -234 -5
-261 -22 -290 -26 -43 -63 -56 -141 -51 -75 5 -105 26 -124 87 -7 24 -11 126
-11 275 l0 236 -40 0 -40 0 0 -252z"/>
<path d="M3430 666 l0 -334 80 -7 c244 -22 380 79 404 300 9 78 -14 200 -48
253 -59 94 -130 122 -307 122 l-129 0 0 -334z m268 249 c83 -35 122 -101 130
-220 8 -138 -32 -231 -119 -275 -29 -15 -59 -20 -119 -20 l-80 0 0 265 0 265
75 0 c46 0 90 -6 113 -15z"/>
<path d="M5070 665 l0 -335 183 2 182 3 3 32 3 32 -143 3 -143 3 -3 118 -3
117 131 0 131 0 -3 33 -3 32 -128 3 -128 3 3 107 3 107 125 2 c69 0 131 2 138
2 7 1 12 15 12 36 l0 35 -180 0 -180 0 0 -335z"/>
<path d="M5707 993 c-12 -11 -7 -63 6 -64 6 0 53 -2 102 -2 l90 -2 5 -295 5
-295 37 -3 38 -3 2 298 3 298 80 2 c44 1 90 2 103 2 18 1 22 7 22 36 l0 35
-243 0 c-134 0 -247 -3 -250 -7z"/>
</g>
</svg>
