<?xml version="1.0" standalone="no"?>
<!DOCTYPE svg PUBLIC "-//W3C//DTD SVG 20010904//EN"
 "http://www.w3.org/TR/2001/REC-SVG-20010904/DTD/svg10.dtd">
<svg version="1.0" xmlns="http://www.w3.org/2000/svg"
 width="1920.000000pt" height="1080.000000pt" viewBox="0 0 1920.000000 1080.000000"
 preserveAspectRatio="xMidYMid meet">

<g transform="translate(0.000000,1080.000000) scale(0.100000,-0.100000)"
fill="#000000" stroke="none">
<path d="M2560 7509 c-69 -118 -130 -223 -136 -234 -5 -11 -47 -84 -93 -162
l-82 -142 123 -216 c68 -118 128 -215 133 -215 6 0 48 65 94 145 73 127 85
143 96 128 6 -10 72 -121 145 -248 73 -126 206 -356 295 -510 90 -154 175
-302 191 -330 15 -27 89 -156 164 -285 75 -129 214 -370 310 -535 95 -165 230
-399 300 -520 70 -121 152 -263 181 -315 l54 -95 253 -3 c199 -2 252 0 252 10
0 7 -44 90 -98 183 -240 414 -441 763 -459 795 -11 19 -83 143 -160 275 -77
132 -152 263 -168 290 -15 28 -85 149 -155 270 -126 218 -324 560 -613 1060
-188 326 -483 836 -494 854 -6 9 -46 -51 -133 -200z"/>
<path d="M2096 6707 c-84 -148 -275 -479 -487 -842 -86 -148 -166 -288 -177
-310 l-20 -41 152 -264 c84 -146 223 -387 309 -537 86 -150 157 -277 157 -283
0 -7 -78 -9 -246 -8 l-246 3 -151 260 c-84 143 -163 281 -177 307 -49 93 -56
95 -92 25 -11 -23 -83 -149 -160 -280 -76 -130 -150 -258 -165 -285 -14 -26
-79 -138 -145 -250 -65 -112 -118 -210 -118 -218 0 -12 151 -14 1134 -14 624
0 1137 4 1140 8 3 5 -44 93 -104 196 -61 104 -110 189 -110 191 0 2 -37 65
-81 141 -95 163 -221 380 -257 444 -14 25 -92 160 -174 300 -81 140 -148 260
-148 267 0 7 35 72 78 145 43 73 96 166 118 205 21 40 44 73 49 73 6 -1 39
-51 74 -113 157 -276 236 -407 243 -405 5 2 64 99 132 216 l125 212 -152 263
c-83 144 -158 276 -167 292 -61 117 -246 425 -255 425 -5 0 -41 -56 -79 -123z"/>
<path d="M5975 6610 c-269 -43 -423 -231 -401 -488 19 -213 140 -336 476 -484
187 -83 292 -155 342 -236 32 -52 33 -188 1 -247 -66 -123 -197 -173 -421
-162 -130 6 -204 21 -305 60 l-68 26 -9 -22 c-39 -96 -57 -152 -54 -161 6 -16
76 -42 179 -68 122 -29 434 -33 535 -5 196 53 329 177 370 345 17 74 15 189
-5 258 -44 151 -164 260 -425 385 -263 127 -362 203 -394 301 -20 63 -20 73 1
137 34 108 133 169 286 178 134 8 350 -26 427 -67 12 -6 24 -9 27 -7 4 5 63
175 63 183 0 9 -84 37 -165 55 -104 23 -364 34 -460 19z"/>
<path d="M13657 6613 c-4 -3 -7 -406 -7 -895 l0 -888 101 0 100 0 -5 643 c-2
353 -7 663 -11 690 -4 26 -3 47 1 47 5 0 37 -53 71 -118 54 -101 125 -208 358
-532 47 -66 112 -157 380 -535 82 -115 154 -213 160 -218 5 -4 33 -6 60 -5
l50 3 0 890 0 890 -95 0 -95 0 0 -615 c0 -386 4 -642 11 -688 13 -91 6 -85
-71 57 -46 85 -268 406 -475 686 -20 28 -52 73 -72 100 -94 134 -276 386 -315
438 -43 55 -46 57 -92 57 -26 0 -51 -3 -54 -7z"/>
<path d="M11600 6601 c-41 -3 -81 -10 -87 -14 -10 -6 -13 -194 -13 -883 0
-822 1 -875 17 -881 10 -4 153 -7 318 -7 334 -1 370 4 509 69 322 151 485 503
446 959 -35 406 -217 645 -560 738 -64 17 -110 21 -315 23 -132 2 -274 0 -315
-4z m592 -213 c252 -94 378 -319 378 -676 0 -411 -175 -660 -496 -706 -70 -11
-135 -13 -224 -8 l-125 7 -3 702 -2 702 42 4 c24 3 115 4 203 2 142 -2 167 -5
227 -27z"/>
<path d="M7300 6495 l0 -95 270 0 270 0 0 -785 0 -785 105 0 105 0 2 783 3
782 275 5 275 5 0 90 0 90 -652 3 -653 2 0 -95z"/>
<path d="M9364 6576 c-3 -7 -4 -312 -2 -677 l3 -664 27 -80 c81 -239 265 -345
594 -345 149 0 228 16 325 67 91 47 152 111 200 209 66 136 70 185 67 891 l-3
608 -100 0 -100 0 -5 -650 c-6 -723 -5 -706 -76 -811 -67 -99 -214 -146 -381
-123 -148 20 -236 77 -287 184 -51 107 -56 187 -56 822 l0 583 -100 0 c-76 0
-102 -3 -106 -14z"/>
<path d="M15850 5710 l0 -880 485 0 486 0 -3 93 -3 92 -377 3 -378 2 0 310 0
310 340 0 341 0 -3 93 -3 92 -337 3 -338 2 0 285 0 285 375 0 376 0 -3 93 -3
92 -477 3 -478 2 0 -880z"/>
<path d="M17530 6495 l0 -95 270 0 270 0 0 -785 0 -785 110 0 110 0 2 783 3
782 270 5 270 5 0 90 0 90 -652 3 -653 2 0 -95z"/>
<path d="M2701 5494 c-88 -155 -121 -222 -117 -237 3 -12 73 -139 157 -282 83
-143 165 -285 182 -315 17 -30 93 -163 170 -295 77 -132 151 -260 165 -285 13
-25 33 -60 44 -77 l20 -33 248 0 c137 0 251 3 253 8 3 4 -42 88 -100 187 -58
99 -119 205 -135 235 -31 55 -192 333 -463 800 -78 135 -175 302 -215 373 -40
70 -76 129 -79 132 -4 2 -62 -93 -130 -211z"/>
</g>
</svg>
