<?xml version="1.0" standalone="no"?>
<!DOCTYPE svg PUBLIC "-//W3C//DTD SVG 20010904//EN"
 "http://www.w3.org/TR/2001/REC-SVG-20010904/DTD/svg10.dtd">
<svg version="1.0" xmlns="http://www.w3.org/2000/svg"
 width="500.000000pt" height="300.000000pt" viewBox="0 0 500.000000 300.000000"
 preserveAspectRatio="xMidYMid meet">
<metadata>
Created by potrace 1.16, written by Peter Selinger 2001-2019
</metadata>
<g transform="translate(0.000000,300.000000) scale(0.026042,-0.027778)"
fill="#000000" stroke="none">
<path d="M9534 10373 c-40 -70 -75 -134 -94 -169 -9 -16 -25 -43 -36 -60 -12
-16 -28 -42 -36 -59 -14 -27 -44 -80 -105 -186 -13 -22 -33 -56 -45 -78 -38
-64 -83 -143 -113 -196 -15 -27 -34 -57 -41 -66 -8 -8 -14 -23 -14 -32 0 -9
-4 -17 -8 -17 -5 0 -21 -24 -36 -52 -15 -29 -42 -78 -61 -108 -33 -53 -72
-124 -103 -185 -9 -16 -19 -32 -23 -35 -4 -3 -19 -28 -34 -55 -14 -28 -42 -75
-60 -105 -72 -115 -75 -131 -31 -200 38 -59 86 -141 86 -146 0 -2 12 -23 27
-47 15 -23 42 -71 61 -107 19 -36 43 -76 53 -89 11 -13 19 -28 19 -33 0 -4 12
-27 27 -51 15 -23 33 -53 40 -67 7 -14 26 -47 42 -75 34 -57 69 -118 109 -189
15 -27 32 -51 37 -53 6 -1 24 20 40 48 17 28 39 65 50 82 12 18 31 52 44 77
28 52 38 71 72 125 27 46 43 72 81 143 15 28 32 53 38 57 5 3 10 13 10 21 0
15 39 74 50 74 3 0 11 -12 17 -27 7 -16 26 -50 42 -78 16 -27 44 -75 61 -105
16 -30 36 -64 43 -75 36 -57 63 -103 74 -125 7 -14 26 -47 42 -75 17 -27 42
-72 57 -100 15 -27 30 -52 33 -55 4 -3 18 -25 31 -50 31 -60 41 -78 71 -125
13 -22 30 -51 37 -65 7 -14 28 -50 47 -80 19 -30 41 -68 49 -85 8 -16 29 -52
45 -80 17 -27 44 -75 61 -105 32 -58 39 -70 83 -138 15 -24 27 -47 27 -53 0
-5 8 -22 19 -37 23 -33 51 -80 91 -152 17 -30 40 -71 52 -90 11 -19 32 -55 45
-80 13 -25 40 -70 58 -100 19 -30 40 -66 47 -80 7 -14 23 -43 37 -65 14 -22
34 -56 44 -75 45 -82 60 -108 92 -160 19 -30 43 -71 53 -90 29 -53 66 -118
103 -183 19 -32 41 -70 49 -85 9 -15 33 -56 54 -92 40 -65 76 -129 106 -186 9
-16 26 -44 38 -61 12 -17 22 -34 22 -38 0 -4 25 -47 55 -97 30 -49 55 -93 55
-97 0 -5 14 -27 30 -49 17 -23 30 -47 30 -54 0 -6 6 -19 14 -27 8 -9 25 -36
38 -61 44 -81 81 -145 90 -157 5 -7 19 -29 30 -50 39 -73 59 -108 93 -163 19
-30 40 -66 47 -80 7 -14 35 -63 63 -110 28 -47 56 -96 63 -110 7 -14 28 -50
47 -80 19 -30 41 -68 49 -85 8 -16 29 -52 45 -80 17 -27 44 -75 61 -105 17
-30 46 -80 64 -110 19 -30 50 -86 71 -125 21 -38 43 -77 50 -85 7 -8 23 -35
35 -59 12 -25 29 -51 36 -59 8 -7 14 -18 14 -23 0 -5 12 -28 27 -52 15 -23 36
-58 47 -77 10 -19 29 -53 42 -75 12 -22 34 -62 49 -90 15 -27 30 -52 34 -55 4
-3 14 -18 23 -35 32 -63 71 -132 103 -185 19 -30 40 -66 47 -80 6 -14 21 -38
31 -53 11 -16 29 -47 42 -70 12 -23 33 -60 45 -82 13 -22 36 -62 52 -90 31
-55 38 -67 81 -137 l29 -48 539 0 c446 0 539 2 539 13 0 8 -13 34 -30 58 -16
24 -30 47 -30 52 0 4 -12 26 -27 50 -15 23 -34 56 -43 72 -9 17 -26 46 -37 65
-11 19 -37 64 -58 100 -21 36 -47 81 -58 100 -11 19 -31 55 -45 80 -13 25 -28
50 -32 55 -8 10 -34 55 -75 130 -13 22 -39 67 -59 100 -19 33 -43 74 -51 90
-9 17 -29 53 -45 80 -16 28 -41 70 -55 95 -14 25 -43 74 -65 110 -22 36 -44
76 -50 90 -6 14 -22 39 -36 57 -13 17 -24 38 -24 47 0 8 -5 18 -10 21 -6 4
-23 29 -38 57 -37 69 -53 97 -81 143 -14 22 -33 56 -44 75 -11 19 -28 51 -39
70 -10 19 -34 60 -53 90 -18 30 -45 75 -58 100 -41 75 -51 93 -78 135 -13 22
-30 51 -37 65 -7 14 -28 50 -46 80 -19 30 -46 79 -62 108 -15 28 -31 52 -36
52 -4 0 -8 9 -8 19 0 11 -5 23 -10 26 -6 4 -22 30 -37 58 -14 29 -29 54 -33
57 -4 3 -19 28 -34 55 -53 100 -111 203 -122 216 -6 8 -22 34 -34 58 -12 25
-29 51 -36 59 -8 7 -14 18 -14 24 0 5 -13 30 -30 55 -16 24 -30 51 -30 59 0 7
-4 14 -8 14 -5 0 -21 24 -36 53 -43 82 -77 141 -90 157 -7 8 -22 33 -33 55
-28 54 -62 115 -82 145 -9 14 -23 36 -30 50 -21 41 -47 87 -66 117 -11 15 -29
46 -41 68 -11 22 -32 58 -44 80 -13 22 -37 64 -54 94 -17 29 -41 71 -53 92
-13 22 -33 56 -45 78 -57 97 -92 159 -115 201 -14 25 -29 50 -35 57 -9 11 -32
52 -66 118 -8 17 -21 37 -28 45 -12 14 -49 80 -82 145 -8 17 -21 37 -28 45
-11 14 -41 67 -82 145 -9 16 -36 64 -62 105 -25 41 -51 86 -58 100 -17 32 -38
68 -92 160 -24 41 -52 91 -63 110 -10 19 -33 60 -52 90 -19 30 -46 79 -61 108
-15 28 -31 52 -36 52 -4 0 -8 4 -8 9 0 10 -60 120 -115 211 -18 30 -45 79 -61
108 -15 28 -31 52 -36 52 -4 0 -8 9 -8 19 0 11 -5 23 -10 26 -6 4 -22 29 -36
57 -15 29 -32 58 -40 66 -8 7 -14 18 -14 23 0 5 -12 28 -27 52 -28 43 -38 59
-80 137 -13 25 -39 70 -58 100 -19 30 -46 77 -60 105 -15 27 -30 52 -33 55 -4
3 -15 21 -26 40 -56 104 -70 130 -101 180 -18 30 -45 79 -61 108 -15 28 -31
52 -36 52 -4 0 -8 9 -8 19 0 11 -5 23 -10 26 -6 4 -24 32 -41 63 -16 31 -45
82 -63 112 -19 30 -50 87 -71 125 -21 39 -43 77 -50 85 -7 8 -25 38 -39 65
-14 28 -32 59 -39 70 -27 44 -62 102 -80 135 -72 132 -90 160 -104 160 -6 0
-24 -21 -39 -47z"/>
<path d="M8476 8538 c-16 -29 -43 -78 -62 -108 -18 -30 -47 -80 -64 -110 -17
-30 -44 -77 -61 -105 -16 -27 -35 -61 -42 -75 -6 -14 -14 -27 -18 -30 -4 -3
-18 -27 -33 -55 -51 -94 -78 -140 -90 -155 -7 -8 -20 -28 -28 -45 -28 -57 -69
-130 -103 -185 -32 -52 -47 -78 -92 -160 -10 -19 -30 -53 -44 -75 -14 -22 -28
-47 -32 -55 -4 -8 -25 -44 -47 -80 -22 -36 -47 -78 -55 -95 -9 -16 -28 -51
-43 -76 -40 -69 -91 -158 -119 -209 -14 -25 -29 -50 -35 -57 -9 -12 -32 -53
-66 -118 -8 -16 -24 -43 -36 -60 -12 -16 -27 -41 -34 -55 -6 -14 -24 -46 -39
-72 -45 -75 -114 -195 -155 -268 -14 -25 -42 -72 -62 -105 -19 -33 -41 -71
-48 -85 -6 -14 -20 -36 -29 -50 -9 -14 -29 -47 -44 -75 -60 -107 -68 -121 -81
-140 -19 -27 -17 -55 6 -90 12 -16 27 -43 36 -60 8 -16 31 -57 50 -90 20 -33
45 -76 56 -95 11 -19 39 -66 61 -105 23 -38 48 -82 57 -97 24 -42 68 -119 99
-173 16 -27 38 -66 49 -85 12 -19 35 -60 52 -90 17 -30 46 -80 64 -110 19 -30
50 -86 71 -125 21 -38 43 -77 50 -85 7 -8 25 -37 39 -65 15 -27 36 -66 48 -85
11 -19 32 -55 45 -80 13 -25 40 -70 58 -100 19 -30 46 -79 61 -107 15 -29 31
-53 35 -53 4 0 12 -12 18 -27 5 -16 24 -50 40 -78 29 -47 50 -84 123 -215 17
-30 33 -57 37 -60 3 -3 12 -16 18 -30 7 -14 26 -47 42 -75 17 -27 44 -76 61
-108 l30 -57 -524 0 -524 0 -11 28 c-11 28 -39 79 -82 147 -13 22 -30 51 -37
65 -7 14 -28 50 -47 80 -19 30 -41 69 -49 85 -8 17 -29 53 -45 80 -17 28 -44
75 -61 105 -32 58 -39 70 -82 138 -16 24 -28 49 -28 57 0 8 -5 17 -10 20 -6 4
-22 27 -36 53 -14 26 -43 76 -64 112 -21 36 -46 79 -54 95 -9 17 -29 53 -45
80 -17 28 -41 70 -55 95 -62 109 -84 144 -92 147 -9 3 -19 -13 -74 -107 -59
-100 -74 -127 -93 -165 -12 -22 -24 -42 -28 -45 -3 -3 -18 -27 -33 -55 -15
-27 -42 -75 -61 -105 -18 -30 -45 -75 -58 -100 -13 -25 -34 -61 -45 -80 -12
-19 -33 -57 -48 -85 -14 -27 -32 -57 -39 -65 -7 -8 -29 -46 -50 -85 -21 -38
-52 -95 -71 -125 -18 -30 -47 -80 -64 -110 -17 -30 -40 -71 -52 -90 -11 -19
-31 -54 -43 -77 -13 -23 -31 -54 -42 -70 -10 -15 -25 -39 -31 -53 -7 -14 -26
-47 -42 -75 -17 -27 -41 -70 -55 -95 -14 -25 -38 -67 -55 -95 -17 -27 -42 -70
-56 -95 -14 -25 -38 -67 -55 -95 -16 -27 -35 -61 -41 -75 -7 -14 -20 -36 -29
-50 -18 -27 -52 -86 -79 -135 -9 -16 -35 -62 -58 -102 -23 -39 -42 -76 -42
-82 0 -8 697 -11 2410 -11 2486 0 2435 -1 2401 35 -5 6 -20 30 -34 55 -13 25
-41 72 -61 105 -19 33 -43 74 -51 90 -9 17 -28 51 -43 76 -40 69 -91 158 -119
209 -14 25 -29 50 -35 57 -9 11 -30 49 -66 118 -8 17 -24 43 -36 59 -19 28
-39 64 -74 131 -8 17 -21 37 -28 45 -6 8 -23 35 -36 60 -30 55 -57 103 -111
195 -23 39 -48 82 -57 97 -8 15 -29 51 -46 80 -41 72 -66 115 -96 168 -14 25
-42 72 -62 105 -19 33 -41 71 -48 85 -6 14 -21 38 -31 53 -11 16 -29 47 -42
70 -12 23 -32 58 -43 77 -12 19 -35 60 -52 90 -69 124 -81 145 -95 160 -8 9
-15 24 -15 33 0 9 -5 19 -10 22 -6 4 -22 29 -36 57 -15 29 -32 58 -40 66 -8 7
-14 18 -14 23 0 5 -12 28 -27 52 -28 43 -38 59 -80 137 -13 25 -39 70 -58 100
-19 30 -46 77 -60 105 -15 27 -30 52 -33 55 -4 3 -15 21 -26 40 -56 105 -70
130 -101 180 -19 30 -46 78 -60 105 l-26 51 26 49 c14 28 42 77 62 110 51 86
73 124 97 170 12 22 30 53 41 68 19 30 45 76 66 117 7 14 21 36 30 50 9 14 29
47 44 75 16 27 38 67 51 90 12 22 33 58 45 80 12 22 29 50 39 62 l17 22 31
-45 c18 -24 32 -51 32 -59 0 -7 5 -17 10 -20 6 -4 22 -29 36 -57 15 -29 32
-58 40 -66 8 -7 14 -18 14 -23 0 -5 12 -28 27 -52 28 -43 38 -59 80 -137 13
-25 39 -70 58 -100 19 -30 45 -75 58 -100 41 -75 51 -93 78 -135 13 -22 30
-51 37 -65 7 -14 28 -50 47 -80 18 -30 45 -77 59 -103 30 -57 52 -81 66 -72 8
5 21 28 78 140 9 17 19 32 23 35 4 3 19 28 34 55 14 28 41 75 60 105 33 54 72
124 103 185 9 17 19 32 22 35 4 3 17 25 30 50 12 25 28 51 34 59 10 13 65 109
121 214 l25 47 -25 48 c-56 104 -111 200 -121 213 -6 8 -22 34 -34 59 -13 25
-26 47 -30 50 -3 3 -13 19 -22 35 -31 62 -70 132 -103 185 -19 30 -46 78 -61
105 -15 28 -30 52 -35 55 -4 3 -12 17 -18 30 -6 14 -24 48 -40 75 -17 28 -44
75 -61 105 -40 72 -68 119 -91 152 -11 15 -19 32 -19 39 0 6 -13 31 -30 56
-16 24 -30 50 -30 58 0 8 -5 17 -10 20 -6 4 -24 32 -40 63 -17 31 -36 66 -43
77 -27 42 -62 101 -77 130 -25 45 -70 125 -96 170 -13 22 -37 65 -54 95 -16
30 -36 64 -43 75 -50 81 -65 107 -87 148 -13 26 -27 47 -31 47 -3 0 -18 -24
-33 -52z"/>
<path d="M9857 6193 c-4 -10 -22 -45 -41 -78 -81 -139 -92 -158 -106 -183 -8
-15 -37 -65 -65 -112 -79 -137 -83 -144 -99 -175 -8 -16 -23 -41 -33 -55 -11
-14 -27 -38 -35 -55 -33 -65 -71 -131 -89 -156 -10 -15 -19 -30 -19 -34 0 -4
-9 -20 -21 -36 -23 -32 -23 -31 20 -104 17 -27 42 -72 57 -99 14 -27 32 -56
40 -64 8 -7 14 -18 14 -23 0 -5 12 -28 27 -52 15 -23 33 -53 40 -67 7 -14 26
-47 42 -75 17 -27 44 -75 61 -105 17 -30 39 -68 49 -85 10 -16 30 -52 45 -80
16 -27 36 -61 45 -75 9 -14 23 -36 29 -50 7 -14 26 -47 42 -75 17 -27 35 -61
42 -75 7 -14 17 -32 24 -40 11 -15 45 -73 92 -160 13 -25 30 -52 36 -60 7 -8
20 -28 28 -45 28 -56 65 -120 111 -197 26 -42 47 -79 47 -82 0 -2 23 -41 50
-86 28 -45 50 -85 50 -89 0 -5 14 -27 30 -49 17 -23 30 -48 30 -56 0 -7 6 -19
14 -25 8 -7 24 -31 36 -54 11 -23 37 -69 57 -102 52 -89 73 -125 96 -170 11
-22 29 -51 40 -65 10 -14 25 -38 33 -55 18 -36 40 -75 73 -130 14 -22 34 -56
44 -75 11 -19 30 -53 43 -75 12 -22 32 -57 44 -77 l20 -38 546 0 c300 0 544 3
542 8 -14 31 -62 118 -67 122 -4 3 -18 25 -31 50 -27 52 -38 72 -90 160 -21
36 -51 88 -66 115 -15 28 -29 52 -33 55 -4 3 -12 16 -18 30 -7 14 -26 48 -42
75 -17 28 -44 75 -61 105 -32 58 -39 70 -82 138 -16 24 -28 47 -28 53 0 5 -8
22 -19 37 -23 33 -51 80 -91 152 -17 30 -40 71 -52 90 -11 19 -32 55 -45 80
-13 25 -39 70 -58 100 -19 30 -45 75 -58 100 -41 75 -51 93 -78 135 -13 22
-30 51 -37 65 -7 14 -28 50 -47 80 -18 30 -45 75 -58 100 -36 67 -60 109 -111
193 -25 41 -46 79 -46 82 0 4 -10 21 -22 38 -12 17 -30 45 -39 61 -41 78 -69
127 -108 190 -22 37 -41 70 -41 73 0 2 -21 39 -47 81 -43 72 -72 122 -114 200
-9 18 -22 38 -27 45 -6 7 -21 32 -34 57 -45 83 -81 145 -90 157 -5 7 -19 29
-30 50 -38 71 -59 108 -93 163 -18 30 -45 75 -58 100 -33 61 -49 88 -78 135
-27 46 -48 82 -80 143 -24 44 -43 53 -52 25z"/>
<path d="M6099 2147 c-49 -14 -91 -45 -137 -99 -25 -29 -27 -40 -30 -135 -4
-99 -3 -106 23 -145 15 -23 41 -53 58 -67 42 -35 129 -91 142 -91 6 0 41 -15
76 -33 165 -83 213 -168 146 -259 -39 -53 -83 -71 -182 -76 -78 -3 -100 -1
-164 22 -89 31 -101 32 -101 7 0 -10 -7 -32 -15 -47 -22 -42 -19 -50 22 -69
50 -24 179 -38 292 -31 91 5 181 29 181 47 0 5 6 9 13 9 43 0 117 137 117 216
0 56 -20 131 -42 156 -11 13 -25 30 -32 38 -23 32 -76 65 -222 139 -171 87
-216 153 -164 239 38 62 71 74 195 69 85 -3 121 -9 158 -25 l47 -21 16 37 c8
20 18 49 21 64 5 25 1 30 -33 44 -52 22 -320 30 -385 11z"/>
<path d="M9363 2153 l-83 -4 0 -510 0 -510 218 3 217 3 65 34 c190 98 273 298
243 584 -19 181 -89 288 -238 362 -68 34 -74 35 -205 39 -74 2 -172 2 -217 -1z
m339 -146 c128 -63 198 -212 185 -396 -16 -236 -124 -356 -333 -369 -45 -2
-94 -2 -108 2 l-26 6 0 389 c0 213 3 391 7 395 5 4 55 6 113 4 90 -3 113 -7
162 -31z"/>
<path d="M10510 1646 l0 -516 61 0 61 0 -4 379 c-2 209 -1 378 2 376 3 -2 13
-21 24 -42 34 -70 103 -173 117 -173 5 0 9 -6 9 -13 0 -10 51 -85 127 -186 10
-13 25 -34 33 -46 36 -56 125 -181 134 -191 6 -6 27 -34 46 -62 33 -49 38 -52
78 -52 l42 0 0 515 0 516 -67 -3 -68 -3 -3 -323 c-1 -177 2 -347 6 -377 5 -30
5 -52 0 -49 -4 3 -8 12 -8 20 0 14 -64 121 -80 134 -4 3 -22 28 -40 55 -19 28
-37 52 -42 53 -4 2 -8 9 -8 16 0 7 -11 23 -25 36 -14 13 -25 28 -25 33 0 5 -9
21 -20 35 -87 114 -221 301 -251 351 -12 20 -25 27 -57 29 l-42 3 0 -515z"/>
<path d="M6900 2090 l0 -60 155 0 155 0 0 -450 0 -450 65 0 65 0 0 450 0 450
155 0 155 0 0 60 0 60 -375 0 -375 0 0 -60z"/>
<path d="M8072 1743 c3 -399 3 -409 25 -450 35 -66 73 -103 138 -134 57 -27
67 -29 190 -29 106 0 138 4 171 19 64 29 118 84 150 153 l29 63 3 393 3 392
-70 0 -71 0 0 -357 c0 -408 -5 -446 -64 -500 -64 -59 -173 -68 -266 -20 -35
17 -50 34 -69 72 -35 73 -41 141 -41 488 l0 317 -66 0 -66 0 4 -407z"/>
<path d="M11745 2138 c-3 -7 -4 -236 -3 -508 l3 -495 283 -3 282 -2 0 65 0 65
-215 0 -215 0 0 170 0 170 195 0 195 0 0 60 0 60 -195 0 -195 0 0 155 0 155
210 0 210 0 0 60 0 60 -275 0 c-211 0 -277 -3 -280 -12z"/>
<path d="M12700 2090 l0 -60 155 0 155 0 0 -450 0 -450 65 0 65 0 0 450 0 450
160 0 160 0 0 60 0 60 -380 0 -380 0 0 -60z"/>
</g>
</svg>
